# xmcd
#
# Track frame offsets: 
#        150
#        9381
#        21186
#        32449
#        45675
#        62565
#        74262
#        85267
#        98921
#        113682
#        128320
#        138176
#        154511
#
# Disc length: 2228 seconds
#
# Revision: 4
# Processed by: cddbd v1.5.2PL0 Copyright (c) Steve Scherf et al.
# Submitted via: ExactAudioCopy v1.3
#
DISCID=9308b20d
DTITLE=Jancis Harvey - A Portrait Of Jancis Harvey
DYEAR=1976
DGENRE=Folk
TTITLE0=You And Me
TTITLE1=My Father's Business
TTITLE2=Swallow Swallow
TTITLE3=Man Of Galilee
TTITLE4=Killing Me Softly With His Song
TTITLE5=Catch Another Butterfly
TTITLE6=I'm Gonna Be A Country Girl Again
TTITLE7=City Of New Orleans
TTITLE8=I Am The Morning Sun
TTITLE9=Little Star
TTITLE10=Take Two
TTITLE11=No Regrets
TTITLE12=Nobody Knows You When You're Down And Out
EXTD=YEAR: 1976
EXTT0=
EXTT1=
EXTT2=
EXTT3=
EXTT4=
EXTT5=
EXTT6=
EXTT7=
EXTT8=
EXTT9=
EXTT10=
EXTT11=
EXTT12=
PLAYORDER=
